%FSLAX32Y32*%
%MOMM*%
%LNKUPFERSEITE1*%
G71*
G01*
%ADD10C, 1.00*%
%ADD11C, 0.09*%
%ADD12C, 0.40*%
%LPD*%
G36*
X794Y831D02*
X794Y771D01*
X714Y771D01*
X714Y831D01*
X794Y831D01*
G37*
G36*
X1040Y831D02*
X1040Y771D01*
X960Y771D01*
X960Y831D01*
X1040Y831D01*
G37*
G36*
X6Y1344D02*
X406Y1344D01*
X406Y1244D01*
X6Y1244D01*
X6Y1344D01*
G37*
G36*
X6Y844D02*
X406Y844D01*
X406Y744D01*
X6Y744D01*
X6Y844D01*
G37*
G36*
X6Y1098D02*
X406Y1098D01*
X406Y998D01*
X6Y998D01*
X6Y1098D01*
G37*
G36*
X1594Y1344D02*
X1994Y1344D01*
X1994Y1244D01*
X1594Y1244D01*
X1594Y1344D01*
G37*
G36*
X1594Y844D02*
X1994Y844D01*
X1994Y744D01*
X1594Y744D01*
X1594Y844D01*
G37*
G36*
X1594Y1098D02*
X1994Y1098D01*
X1994Y998D01*
X1594Y998D01*
X1594Y1098D01*
G37*
G36*
X0Y1140D02*
X806Y1140D01*
X806Y955D01*
X0Y955D01*
X0Y1140D01*
G37*
G36*
X901Y1140D02*
X2000Y1140D01*
X2000Y955D01*
X901Y955D01*
X901Y1140D01*
G37*
G36*
X0Y1997D02*
X2000Y1997D01*
X2000Y1178D01*
X0Y1178D01*
X0Y1997D01*
G37*
G36*
X0Y438D02*
X2000Y438D01*
X2000Y0D01*
X0Y0D01*
X0Y438D01*
G37*
G36*
X6Y917D02*
X406Y917D01*
X406Y209D01*
X6Y209D01*
X6Y917D01*
G37*
G36*
X1122Y917D02*
X2000Y917D01*
X2000Y209D01*
X1122Y209D01*
X1122Y917D01*
G37*
X1024Y587D02*
G54D10*
D03*
G36*
X581Y1045D02*
X581Y955D01*
X451Y955D01*
X451Y1045D01*
X581Y1045D01*
G37*
G36*
X581Y855D02*
X581Y765D01*
X451Y765D01*
X451Y855D01*
X581Y855D01*
G37*
G36*
X581Y854D02*
X581Y764D01*
X451Y764D01*
X451Y854D01*
X581Y854D01*
G37*
G36*
X581Y664D02*
X581Y574D01*
X451Y574D01*
X451Y664D01*
X581Y664D01*
G37*
G36*
X1089Y624D02*
X1089Y534D01*
X959Y534D01*
X959Y624D01*
X1089Y624D01*
G37*
G36*
X1089Y434D02*
X1089Y344D01*
X959Y344D01*
X959Y434D01*
X1089Y434D01*
G37*
G36*
X751Y721D02*
X661Y721D01*
X661Y851D01*
X751Y851D01*
X751Y721D01*
G37*
G36*
X561Y721D02*
X471Y721D01*
X471Y851D01*
X561Y851D01*
X561Y721D01*
G37*
G36*
X771Y854D02*
X771Y764D01*
X641Y764D01*
X641Y854D01*
X771Y854D01*
G37*
G36*
X771Y664D02*
X771Y574D01*
X641Y574D01*
X641Y664D01*
X771Y664D01*
G37*
G36*
X990Y982D02*
X900Y982D01*
X900Y1112D01*
X990Y1112D01*
X990Y982D01*
G37*
G36*
X800Y983D02*
X710Y982D01*
X710Y1112D01*
X800Y1113D01*
X800Y983D01*
G37*
G36*
X1089Y1045D02*
X1089Y955D01*
X959Y955D01*
X959Y1045D01*
X1089Y1045D01*
G37*
G36*
X1089Y855D02*
X1089Y765D01*
X959Y765D01*
X959Y855D01*
X1089Y855D01*
G37*
G36*
X1089Y831D02*
X1089Y741D01*
X959Y741D01*
X959Y831D01*
X1089Y831D01*
G37*
G36*
X1089Y641D02*
X1089Y551D01*
X959Y551D01*
X959Y641D01*
X1089Y641D01*
G37*
G36*
X319Y662D02*
X919Y662D01*
X919Y262D01*
X319Y262D01*
X319Y662D01*
G37*
G36*
X637Y917D02*
X919Y917D01*
X919Y893D01*
X637Y893D01*
X637Y917D01*
G37*
G36*
X843Y911D02*
X919Y911D01*
X919Y311D01*
X843Y311D01*
X843Y911D01*
G37*
X238Y1294D02*
G54D10*
D03*
X619Y1294D02*
G54D10*
D03*
X1000Y1294D02*
G54D10*
D03*
X1381Y1294D02*
G54D10*
D03*
X1762Y1294D02*
G54D10*
D03*
X238Y801D02*
G54D10*
D03*
X1381Y801D02*
G54D10*
D03*
X1762Y801D02*
G54D10*
D03*
X238Y1802D02*
G54D10*
D03*
X619Y1802D02*
G54D10*
D03*
X1000Y1802D02*
G54D10*
D03*
X1381Y1802D02*
G54D10*
D03*
X1762Y1802D02*
G54D10*
D03*
X238Y198D02*
G54D10*
D03*
X619Y198D02*
G54D10*
D03*
X1000Y198D02*
G54D10*
D03*
X1381Y198D02*
G54D10*
D03*
X1762Y198D02*
G54D10*
D03*
X238Y484D02*
G54D10*
D03*
X1762Y484D02*
G54D10*
D03*
X1381Y484D02*
G54D10*
D03*
X619Y484D02*
G54D10*
D03*
G54D11*
X238Y1294D02*
X619Y1294D01*
X238Y1540D02*
G54D10*
D03*
X1762Y1540D02*
G54D10*
D03*
%LNAUGENFREISTANZEN*%
%LPC*%
X1024Y587D02*
G54D12*
D03*
X238Y1294D02*
G54D12*
D03*
X619Y1294D02*
G54D12*
D03*
X1000Y1294D02*
G54D12*
D03*
X1381Y1294D02*
G54D12*
D03*
X1762Y1294D02*
G54D12*
D03*
X238Y801D02*
G54D12*
D03*
X1381Y801D02*
G54D12*
D03*
X1762Y801D02*
G54D12*
D03*
X238Y1802D02*
G54D12*
D03*
X619Y1802D02*
G54D12*
D03*
X1000Y1802D02*
G54D12*
D03*
X1381Y1802D02*
G54D12*
D03*
X1762Y1802D02*
G54D12*
D03*
X238Y198D02*
G54D12*
D03*
X619Y198D02*
G54D12*
D03*
X1000Y198D02*
G54D12*
D03*
X1381Y198D02*
G54D12*
D03*
X1762Y198D02*
G54D12*
D03*
X238Y484D02*
G54D12*
D03*
X1762Y484D02*
G54D12*
D03*
X1381Y484D02*
G54D12*
D03*
X619Y484D02*
G54D12*
D03*
X238Y1540D02*
G54D12*
D03*
X1762Y1540D02*
G54D12*
D03*
M02*
