<?xml version="1.0" encoding="utf-8"?>
<!-- Generator: Adobe Illustrator 18.0.0, SVG Export Plug-In . SVG Version: 6.00 Build 0)  -->
<!DOCTYPE svg PUBLIC "-//W3C//DTD SVG 1.1//EN" "http://www.w3.org/Graphics/SVG/1.1/DTD/svg11.dtd">
<svg version="1.1" id="Layer_1" xmlns="http://www.w3.org/2000/svg" xmlns:xlink="http://www.w3.org/1999/xlink" x="0px" y="0px"
	 width="20px" height="20px" viewBox="0 0 20 20" enable-background="new 0 0 20 20" xml:space="preserve">
<g>
	<path fill="#FFFFFF" d="M19.8,6c0,0-0.2-1.4-0.8-2c-0.8-0.8-1.6-0.8-2-0.8C14.2,3,10,3,10,3l0,0c0,0-4.2,0-7,0.2
		c-0.4,0-1.2,0-2,0.8C0.4,4.6,0.2,6,0.2,6S0,7.6,0,9.2v1.5C0,12.4,0.2,14,0.2,14s0.2,1.4,0.8,2c0.8,0.8,1.8,0.8,2.2,0.9
		C4.8,17,10,17,10,17s4.2,0,7-0.2c0.4,0,1.2-0.1,2-0.8c0.6-0.6,0.8-2,0.8-2s0.2-1.6,0.2-3.2V9.2C20,7.6,19.8,6,19.8,6z M8,12.6V7
		l5.4,2.8L8,12.6z"/>
</g>
<rect fill="none" width="20" height="20"/>
</svg>
