<?xml version="1.0" encoding="utf-8"?>
<!-- Generator: Adobe Illustrator 18.1.0, SVG Export Plug-In . SVG Version: 6.00 Build 0)  -->
<svg version="1.1" id="Capa_1" xmlns="http://www.w3.org/2000/svg" xmlns:xlink="http://www.w3.org/1999/xlink" x="0px" y="0px"
	 viewBox="0 0 600 600" enable-background="new 0 0 600 600" xml:space="preserve">
<g>
	<path fill="#FFFFFF" d="M398.5,69.7c-90.9-90.9-239.4-90.9-330.3,0s-90.9,239.4,0,330.3c81.8,81.8,206.1,90.9,297,27.3
		c3,9.1,6.1,18.2,12.1,24.2l133.3,133.3c18.2,18.2,51.5,18.2,69.7,0c18.2-18.2,18.2-51.5,0-69.7L447,381.8
		c-6.1-6.1-15.2-12.1-24.2-12.1C489.4,278.8,480.3,151.5,398.5,69.7z M356.1,357.6c-66.7,66.7-178.8,66.7-245.5,0
		s-66.7-178.8,0-245.5s178.8-66.7,245.5,0C425.8,181.8,425.8,290.9,356.1,357.6z"/>
</g>
</svg>
