<svg id="Layer_1" data-name="Layer 1" xmlns="http://www.w3.org/2000/svg" viewBox="0 0 17.91 17.91"><defs><style>.cls-1{fill:#FFFFFF;}.cls-2{fill:none;}</style></defs><title>ico-google-plus-wht</title><path class="cls-1" d="M17.5,7.48H14.81V4.8a.37.37,0,0,0-.37-.37h-.77a.37.37,0,0,0-.37.37V7.48H10.61a.37.37,0,0,0-.37.37v.77a.37.37,0,0,0,.37.37H13.3v2.69a.37.37,0,0,0,.37.37h.77a.37.37,0,0,0,.37-.37V9H17.5a.37.37,0,0,0,.37-.37V7.86A.37.37,0,0,0,17.5,7.48Z" transform="translate(-0.04 -0.03)"/><path class="cls-1" d="M8.46,9.84A3.14,3.14,0,0,1,7.38,8.67c0-.33,0-.48.77-1.06A3.52,3.52,0,0,0,9.62,4.85a3.68,3.68,0,0,0-.78-2.36h.38a.36.36,0,0,0,.22-.07l1.06-.77A.37.37,0,0,0,10.28,1H5.55A4.78,4.78,0,0,0,4,1.25,4.07,4.07,0,0,0,1.07,4.82a3.8,3.8,0,0,0,3.87,3.8,2,2,0,0,0-.07.5,1.86,1.86,0,0,0,.26.94H5.06A5.16,5.16,0,0,0,.33,12.64,2.81,2.81,0,0,0,0,13.85,2.25,2.25,0,0,0,.34,15a4.21,4.21,0,0,0,2.75,1.77A8.87,8.87,0,0,0,5.26,17a7,7,0,0,0,1.93-.26,3.85,3.85,0,0,0,3.09-3.52A3.66,3.66,0,0,0,8.46,9.84Zm-6,3.5c0-1.11,1.41-2.09,3-2.09h0a3.56,3.56,0,0,1,1,.15l.32.22c.74.51,1.24.84,1.38,1.38a1.75,1.75,0,0,1,0,.4c0,1.38-1,2.09-3.07,2.09C3.7,15.49,2.49,14.55,2.49,13.34ZM4,2.83a1.24,1.24,0,0,1,1-.44H5c1,0,2,1.2,2.23,2.6a2.53,2.53,0,0,1-.47,2,1.24,1.24,0,0,1-1,.44h0c-1,0-2-1.24-2.23-2.64A2.45,2.45,0,0,1,4,2.83Z" transform="translate(-0.04 -0.03)"/><rect class="cls-2" width="17.91" height="17.91"/></svg>