<?xml version="1.0" encoding="UTF-8"?>
<svg width="30px" height="28px" viewBox="0 0 30 28" version="1.1" xmlns="http://www.w3.org/2000/svg" xmlns:xlink="http://www.w3.org/1999/xlink">
    <!-- Generator: Sketch 48.2 (47327) - http://www.bohemiancoding.com/sketch -->
    <title>ico-account-white</title>
    <desc>Created with Sketch.</desc>
    <defs></defs>
    <g id="Page-1" stroke="none" stroke-width="1" fill="none" fill-rule="evenodd">
        <g id="ico-account-white" fill="#6CB33F" fill-rule="nonzero">
            <path d="M15,18.734 C17.056,18.734 19.002,17.787 20.478,16.066 C22.005,14.287 22.846,11.908 22.846,9.368 C22.846,4.203 19.327,0 15,0 C10.674,0 7.155,4.203 7.155,9.368 C7.155,11.907 7.996,14.287 9.523,16.067 C10.999,17.787 12.945,18.734 15,18.734 Z" id="Shape"></path>
            <path d="M21.26,17.74 C21.18,17.828 21.093,17.904 21.01,17.989 C20.909,18.092 20.808,18.195 20.704,18.293 C20.578,18.411 20.446,18.522 20.313,18.631 C20.205,18.722 20.099,18.814 19.988,18.898 C19.852,19.002 19.712,19.094 19.571,19.189 C19.458,19.266 19.346,19.345 19.231,19.416 C19.086,19.504 18.937,19.582 18.788,19.661 C18.671,19.723 18.557,19.788 18.439,19.845 C18.284,19.918 18.126,19.979 17.967,20.042 C17.849,20.089 17.734,20.142 17.614,20.182 C17.446,20.241 17.275,20.286 17.103,20.332 C16.991,20.363 16.878,20.4 16.764,20.427 C16.572,20.471 16.377,20.498 16.182,20.528 C16.084,20.543 15.988,20.565 15.89,20.576 C15.597,20.608 15.3,20.625 15,20.625 C14.7,20.625 14.403,20.607 14.109,20.574 C14.013,20.562 13.92,20.541 13.825,20.527 C13.628,20.498 13.43,20.469 13.236,20.425 C13.123,20.4 13.015,20.362 12.904,20.332 C12.73,20.284 12.556,20.24 12.385,20.18 C12.268,20.14 12.156,20.089 12.041,20.043 C11.879,19.979 11.718,19.917 11.56,19.842 C11.444,19.788 11.332,19.723 11.218,19.662 C11.066,19.582 10.914,19.503 10.767,19.413 C10.653,19.344 10.544,19.267 10.433,19.191 C10.291,19.095 10.149,19.001 10.011,18.895 C9.901,18.812 9.796,18.721 9.688,18.631 C9.556,18.521 9.424,18.41 9.296,18.291 C9.191,18.193 9.09,18.089 8.988,17.985 C8.906,17.901 8.82,17.825 8.74,17.738 C3.649,19.262 0.294,23.474 0,27.073 L0,27.074 L30,27.074 C29.705,23.475 26.351,19.262 21.26,17.74 Z" id="Shape"></path>
        </g>
    </g>
</svg>