<svg id="Layer_1" data-name="Layer 1" xmlns="http://www.w3.org/2000/svg" viewBox="0 0 613 78.66"><defs><style>.cls-1{fill:#fff;}.cls-2{fill:#c1d82f;}.cls-3{fill:#6cb33f;}</style></defs><title>Thomasnet_logo</title><path class="cls-1" d="M7348.41,1404.17a7.76,7.76,0,1,1-7.69-7.55A7.61,7.61,0,0,1,7348.41,1404.17Zm-13.59,0a5.88,5.88,0,0,0,5.9,6,5.79,5.79,0,0,0,5.76-6A5.83,5.83,0,1,0,7334.82,1404.17Zm4.66,3.92h-1.75v-7.55a20.19,20.19,0,0,1,2.9-.23,4,4,0,0,1,2.58.6,1.91,1.91,0,0,1,.78,1.61,2,2,0,0,1-1.56,1.8v0.09a2.13,2.13,0,0,1,1.34,1.84,6.7,6.7,0,0,0,.55,1.84h-1.84a6.07,6.07,0,0,1-.6-1.84,1.33,1.33,0,0,0-1.56-1.15h-0.83v3Zm0-4.24h0.83c1,0,1.75-.32,1.75-1.1s-0.51-1.15-1.61-1.15a4.14,4.14,0,0,0-1,.09v2.16Z" transform="translate(-6735.41 -1375.49)"/><path class="cls-1" d="M7231.65,1434.56h5.24v5.24h-5.24v-5.24Z" transform="translate(-6735.41 -1375.49)"/><path class="cls-1" d="M7260.47,1423.22a5.69,5.69,0,0,0-6-4.87c-5.81,0-7.61,4.59-7.61,9.55,0,4.49,2,8.93,7.15,8.93,3.87,0,6.18-2.27,6.7-6h4.11c-0.9,6-4.63,9.5-10.77,9.5-7.47,0-11.44-5.19-11.44-12.48s3.78-13.08,11.52-13.08c5.54,0,10,2.59,10.55,8.41h-4.16Z" transform="translate(-6735.41 -1375.49)"/><path class="cls-1" d="M7279.8,1414.82c7.75,0,11.87,5.62,11.87,12.8s-4.12,12.76-11.87,12.76-11.86-5.63-11.86-12.76S7272.05,1414.82,7279.8,1414.82Zm0,22c4.2,0,7.6-3.31,7.6-9.22s-3.4-9.27-7.6-9.27-7.61,3.31-7.61,9.27S7275.59,1436.84,7279.8,1436.84Z" transform="translate(-6735.41 -1375.49)"/><path class="cls-1" d="M7296.38,1415.38h3.78V1419h0.1a9,9,0,0,1,7.89-4.15c3,0,5.73,1.18,6.71,4.15a9.06,9.06,0,0,1,7.66-4.15c4.86,0,8.13,2,8.13,7.08v17.91h-4v-16c0-3-.79-5.44-4.72-5.44s-6.39,2.46-6.39,6.25v15.21h-4v-16c0-3.17-1-5.44-4.59-5.44a6.59,6.59,0,0,0-6.52,6.25v15.21h-4v-24.43Z" transform="translate(-6735.41 -1375.49)"/><path class="cls-1" d="M6868.57,1405.49h-13.26V1440h-11.58v-34.5h-13.26v-10h38.11v10Z" transform="translate(-6735.41 -1375.49)"/><path class="cls-1" d="M6873.55,1395.52h11.58v16.19h15.26v-16.19H6912V1440H6900.4v-18.31h-15.26V1440h-11.58v-44.47Z" transform="translate(-6735.41 -1375.49)"/><path class="cls-1" d="M6940.06,1394.59c14,0,21.92,10.27,21.92,23.17s-7.91,23.17-21.92,23.17-21.92-10.28-21.92-23.17S6926.05,1394.59,6940.06,1394.59Zm0,36.37c7.47,0,10.34-6.6,10.34-13.2s-2.86-13.2-10.34-13.2-10.34,6.6-10.34,13.2S6932.59,1431,6940.06,1431Z" transform="translate(-6735.41 -1375.49)"/><path class="cls-1" d="M6968.34,1395.52h17.06l7.66,29.64h0.12l7.66-29.64h17.07V1440H7007v-33.75h-0.12l-9.34,33.75h-8.84l-9.34-33.75h-0.13V1440h-10.9v-44.47Z" transform="translate(-6735.41 -1375.49)"/><path class="cls-1" d="M7038,1395.52h11.77l16.63,44.47h-12.09l-2.74-8h-15.51l-2.81,8H7021.4Zm0.74,27.9h10.09l-4.92-15.57h-0.13Z" transform="translate(-6735.41 -1375.49)"/><path class="cls-1" d="M7078.81,1425c0.25,5.23,3.49,6.91,8.41,6.91,3.49,0,7.1-1.24,7.1-4.55,0-3.92-6.35-4.67-12.76-6.48s-13-4.67-13-12.83c0-9.71,9.78-13.51,18.12-13.51,8.85,0,17.75,4.3,17.81,14.32h-11.58c0.18-4-3.61-5.35-7.17-5.35-2.49,0-5.6.87-5.6,3.8,0,3.42,6.41,4,12.89,5.86s12.89,4.79,12.89,12.83c0,11.27-9.59,14.88-19.37,14.88-10.21,0-19.24-4.48-19.31-15.88h11.58Z" transform="translate(-6735.41 -1375.49)"/><path class="cls-1" d="M7111.2,1395.52h11.89l15.44,27.4h0.13v-27.4h10.89V1440h-11.9l-15.44-27.71h-0.13V1440H7111.2v-44.47Z" transform="translate(-6735.41 -1375.49)"/><path class="cls-1" d="M7156.22,1395.52h35.43v9.28H7167.8v7.79h21.79v9H7167.8V1430h24.47v10h-36.05v-44.47Z" transform="translate(-6735.41 -1375.49)"/><path class="cls-1" d="M7235.37,1405.49h-13.26V1440h-11.59v-34.5h-13.26v-10h38.11v10Z" transform="translate(-6735.41 -1375.49)"/><path class="cls-2" d="M6759.86,1402c-0.79.32-.79,0.86,0,1.19l63.87,26.57c0.79,0.33,1.06,0,.61-0.73l-15.7-25.06a2.65,2.65,0,0,1,0-2.65l15.75-24.94c0.46-.74.18-1.07-0.63-0.74Z" transform="translate(-6735.41 -1375.49)"/><path class="cls-3" d="M6800.14,1427.68c0.8-.33.8-0.87,0-1.2l-63.86-26.58c-0.8-.33-1.06,0-0.62.74l15.71,25.05a2.69,2.69,0,0,1,0,2.65l-15.74,25c-0.45.72-.19,1.05,0.61,0.72Z" transform="translate(-6735.41 -1375.49)"/></svg>