<?xml version="1.0" encoding="UTF-8"?>
<svg width="78px" height="134px" viewBox="0 0 78 134" version="1.1" xmlns="http://www.w3.org/2000/svg" xmlns:xlink="http://www.w3.org/1999/xlink">
    <!-- Generator: Sketch 47.1 (45422) - http://www.bohemiancoding.com/sketch -->
    <title>logo vertical</title>
    <desc>Created with Sketch.</desc>
    <defs></defs>
    <g id="Page-1" stroke="none" stroke-width="1" fill="none" fill-rule="evenodd">
        <g id="Hompage--Final" transform="translate(-169.000000, -3854.000000)">
            <g id="subscription" transform="translate(-85.000000, 3831.000000)">
                <g id="logo-vertical" transform="translate(254.000000, 23.000000)">
                    <polygon id="Fill-1" fill="#49B0E4" points="0 24 71 24 71 0 0 0"></polygon>
                    <polygon id="Fill-2" fill="#FFFFFF" points="0 111 24 111 24 47 0 47"></polygon>
                    <polygon id="Fill-3" fill="#FFFFFF" points="47 111 71 111 71 47 47 47"></polygon>
                    <g id="Group-18" transform="translate(73.000000, 124.000000)" fill="#FFFFFF">
                        <polygon id="Fill-14" points="1.2040201 0.293510324 1.2040201 2 0.795979899 2 0.795979899 0.293510324 0 0.293510324 0 0 2 0 2 0.293510324"></polygon>
                        <path d="M4.67023908,1.96949891 L4.67023908,0.928104575 C4.67023908,0.809005084 4.67353669,0.63761801 4.6768343,0.582425563 C4.65210223,0.63761801 4.58779885,0.779956427 4.53338829,0.891793755 L3.99093157,2 L3.45342127,0.891793755 C3.39901072,0.779956427 3.33470734,0.63761801 3.30997527,0.582425563 C3.31327288,0.63761801 3.31657049,0.809005084 3.31657049,0.928104575 L3.31657049,1.96949891 L3,1.96949891 L3,0 L3.34460016,0 L3.84583677,1.0486565 C3.90024732,1.16049383 3.97114592,1.30573711 4.0008244,1.38707335 C4.03215169,1.30573711 4.09480627,1.16339869 4.15086562,1.0486565 L4.6422094,0 L5,0 L5,1.96949891 L4.67023908,1.96949891 Z" id="Fill-16"></path>
                    </g>
                    <g id="Group-2" transform="translate(0.000000, 124.000000)" fill="#FFFFFF">
                        <polygon id="Fill-4" points="0 0 0 2.4137931 2.67619248 2.4137931 2.67619248 10 5.32548855 10 5.32548855 2.4137931 8 2.4137931 8 0"></polygon>
                        <polygon id="Fill-5" points="17.099278 0 17.099278 3.64180155 13.9043321 3.64180155 13.9043321 0 11 0 11 10 13.9043321 10 13.9043321 6.05735398 17.099278 6.05735398 17.099278 10 20 10 20 0"></polygon>
                        <path d="M28.486317,2.34009893 C27.4019384,2.34009893 26.7913341,3.24066178 26.7913341,4.98720791 C26.7913341,6.73204844 27.4310148,7.65990107 28.513683,7.65990107 C29.5963512,7.65990107 30.2086659,6.75933822 30.2086659,5.01279209 C30.2086659,3.26965717 29.5689852,2.34009893 28.486317,2.34009893 M28.486317,10 C25.8472064,10 24,8.24151458 24,5.01279209 C24,1.78748081 25.8745724,0 28.513683,0 C31.1527936,0 33,1.75848542 33,4.98720791 C33,8.21251919 31.1254276,10 28.486317,10" id="Fill-6"></path>
                        <path d="M44.4061733,9.67001191 L44.4061733,7.36349719 C44.4061733,6.40925327 44.4219572,5.53835686 44.4640477,4.7933322 C44.1641529,5.51284232 43.6520519,6.63037932 43.3100666,7.32097295 L42,10 L40.6899334,7.32097295 C40.3479481,6.63037932 39.8358471,5.51284232 39.5359523,4.7933322 C39.5780428,5.53835686 39.5938267,6.40925327 39.5938267,7.36349719 L39.5938267,9.67001191 L37,9.67001191 L37,0 L39.5359523,0 L40.761838,2.58377275 C41.3598737,3.82548052 41.8579446,4.95832625 42.0140302,5.49753359 C42.1841459,4.94641946 42.6401263,3.89522028 43.2679761,2.58377275 L44.492108,0 L47,0 L47,9.67001191 L44.4061733,9.67001191 Z" id="Fill-8"></path>
                        <path d="M55.626093,4.8474934 C55.2710738,3.69023747 55.1136761,3.20105541 54.9860091,2.59630607 C54.8583421,3.20105541 54.7026932,3.70131926 54.347674,4.8474934 L54.1622945,5.43799472 L55.8097237,5.43799472 L55.626093,4.8474934 Z M57.0164393,9 L56.4760406,7.41846966 L53.4942288,7.41846966 L52.9555789,9 L50,9 L53.6096537,0 L56.3920951,0 L60,9 L57.0164393,9 Z" id="Fill-10"></path>
                        <path d="M66.0413241,10 C64.492937,10 63.0002108,9.48661095 62,8.82312809 L63.2886359,6.71669794 C63.9869281,7.20109159 65.2064094,7.68719086 66.0952983,7.68719086 C67.0415349,7.68719086 67.3417668,7.52004093 67.3417668,7.06293706 C67.3417668,6.70305304 66.9993675,6.48132355 65.7124183,6.17772471 C63.3982711,5.63704588 62.288425,4.99914719 62.288425,3.06157257 C62.288425,1.23145148 63.754164,0 66.0699979,0 C67.6976597,0 68.8766603,0.400818694 69.8903647,1.12229234 L68.6034156,3.22701689 C67.7533207,2.64540338 66.9049125,2.31280914 65.9333755,2.31280914 C65.1372549,2.31280914 64.9466582,2.56182842 64.9466582,2.90806754 C64.9466582,3.26965717 65.2890576,3.43339587 66.5203458,3.72505543 C68.9323213,4.30666894 70,5.05543237 70,6.87020297 C70,9.08579226 68.3419777,10 66.0413241,10" id="Fill-12"></path>
                    </g>
                </g>
            </g>
        </g>
    </g>
</svg>