<?xml version="1.0" encoding="UTF-8"?>
<svg width="289px" height="56px" viewBox="0 0 289 56" version="1.1" xmlns="http://www.w3.org/2000/svg" xmlns:xlink="http://www.w3.org/1999/xlink">
    <!-- Generator: Sketch 48.2 (47327) - http://www.bohemiancoding.com/sketch -->
    <title>logo</title>
    <desc>Created with Sketch.</desc>
    <defs></defs>
    <g id="Page-1" stroke="none" stroke-width="1" fill="none" fill-rule="evenodd">
        <g id="logo" fill-rule="nonzero">
            <polygon id="Fill-1" fill="#3CB4E7" points="0 12.0681818 37.1742739 12.0681818 37.1742739 0 0 0"></polygon>
            <polygon id="Fill-2" fill="#FFFFFF" points="1.19917012 54.3068182 13.1908714 54.3068182 13.1908714 22.9295455 1.19917012 22.9295455"></polygon>
            <polygon id="Fill-3" fill="#FFFFFF" points="25.1825726 54.3068182 37.1742739 54.3068182 37.1742739 22.9295455 25.1825726 22.9295455"></polygon>
            <polygon id="Fill-4" fill="#FFFFFF" points="65 23 65 30.5758232 73.8241043 30.5758232 73.8241043 54.3772727 82.5576385 54.3772727 82.5576385 30.5758232 91.3817428 30.5758232 91.3817428 23"></polygon>
            <polygon id="Fill-5" fill="#FFFFFF" points="119.686343 23 119.686343 34.4305567 109.892957 34.4305567 109.892957 23 101 23 101 54.3772727 109.892957 54.3772727 109.892957 42.0047698 119.686343 42.0047698 119.686343 54.3772727 128.580913 54.3772727 128.580913 23"></polygon>
            <g id="Group-14" transform="translate(139.103734, 20.929545)" fill="#FFFFFF">
                <path d="M15.0703574,8.73593331 C11.4693479,8.73593331 9.44004974,11.7494155 9.44004974,17.5931389 C9.44004974,23.4368622 11.5621916,26.541965 15.1632011,26.541965 C18.7625527,26.541965 20.7918509,23.5284828 20.7918509,17.6864252 C20.7918509,11.8427019 18.669709,8.73593331 15.0703574,8.73593331 M15.0703574,34.379684 C6.30160085,34.379684 0.162310696,28.4893175 0.162310696,17.6864252 C0.162310696,6.88020132 6.39278663,0.898214264 15.1632011,0.898214264 C23.9319577,0.898214264 30.0695899,6.7885808 30.0695899,17.5931389 C30.0695899,28.397697 23.839114,34.379684 15.0703574,34.379684" id="Fill-6"></path>
                <path d="M64.0000983,33.4603174 L64.0000983,25.7158847 C64.0000983,22.5158298 64.0465202,19.5939681 64.1841278,17.0902292 C63.2142427,19.5023476 61.5530035,23.2571231 60.4455107,25.577621 L56.2012269,34.5730903 L51.9536273,25.577621 C50.8461345,23.2571231 49.1848953,19.5023476 48.2150102,17.0902292 C48.3542757,19.5939681 48.4006976,22.5158298 48.4006976,25.7158847 L48.4006976,33.4603174 L40,33.4603174 L40,1 L48.2150102,1 L52.1857366,9.67063292 C54.123849,13.8451969 55.7403242,17.6466156 56.2459908,19.4557044 C56.7997372,17.5999724 58.2769469,14.076747 60.307903,9.67063292 L64.2769715,1 L72.399138,1 L72.399138,33.4603174 L64.0000983,33.4603174 Z" id="Fill-8"></path>
                <path d="M100.275289,18.4828611 C99.1230324,14.3099629 98.6140499,12.5475172 98.1979111,10.3669488 C97.7834303,12.5475172 97.2744478,14.3549402 96.1221911,18.4828611 L95.5220228,20.6167863 L100.875457,20.6167863 L100.275289,18.4828611 Z M104.799762,33.4619832 L103.044021,27.7581894 L93.3518012,27.7581894 L91.5993762,33.4619832 L82,33.4619832 L93.7215181,1 L102.767148,1 L114.490324,33.4619832 L104.799762,33.4619832 Z" id="Fill-10"></path>
                <path d="M135.614867,34.4814697 C130.39904,34.4814697 125.368901,32.7656672 122,30.5401215 L126.337128,23.4920048 C128.691379,25.1145209 132.799713,26.737037 135.798896,26.737037 C138.983767,26.737037 140.000074,26.1806506 140.000074,24.6514208 C140.000074,23.4453616 138.844502,22.7024025 134.507374,21.6829159 C126.708503,19.8738271 122.969886,17.7415678 122.969886,11.2481716 C122.969886,5.1279209 127.908839,1 135.707711,1 C141.198753,1 145.169479,2.34432291 148.583143,4.75644133 L144.246016,11.804558 C141.382782,9.85720557 138.522864,8.7444327 135.24515,8.7444327 C132.569262,8.7444327 131.922672,9.57901235 131.922672,10.7384284 C131.922672,11.9444876 133.076586,12.500874 137.231342,13.4753832 C145.353509,15.4227357 148.95286,17.9264746 148.95286,24.001748 C148.95286,31.4213443 143.368974,34.4814697 135.614867,34.4814697" id="Fill-12"></path>
            </g>
        </g>
    </g>
</svg>